<svg width="33" height="41" viewBox="0 0 33 41" fill="none" xmlns="http://www.w3.org/2000/svg">
<path d="M31.6107 5.3032L16.8104 0.259436C16.6319 0.198458 16.3923 0.167969 16.1528 0.167969C15.9132 0.167969 15.6736 0.198458 15.4951 0.259436L0.694802 5.3032C0.333289 5.42515 0.0371094 5.84329 0.0371094 6.22658V27.2379C0.0371094 27.6212 0.285378 28.1264 0.585913 28.366L15.5996 40.0651C15.752 40.1827 15.948 40.2437 16.1484 40.2437C16.3488 40.2437 16.5491 40.1827 16.6972 40.0651L31.7109 28.366C32.0114 28.1308 32.2597 27.6255 32.2597 27.2379V6.22658C32.2684 5.84329 31.9722 5.42951 31.6107 5.3032ZM24.1017 12.7425L14.8417 25.4913C14.7766 25.5804 14.6914 25.6529 14.593 25.7029C14.4946 25.7528 14.3858 25.7789 14.2755 25.7789C14.1651 25.7789 14.0564 25.7528 13.958 25.7029C13.8596 25.6529 13.7744 25.5804 13.7093 25.4913L8.20382 17.9126C8.03831 17.6818 8.20382 17.3594 8.48693 17.3594H10.8912C11.1133 17.3594 11.3268 17.4683 11.4574 17.6469L14.2755 21.5234L20.8481 12.4725C20.9787 12.2939 21.1878 12.185 21.4143 12.185H23.8186C24.1017 12.1894 24.2672 12.5117 24.1017 12.7425Z" fill="white"/>
</svg>
