<svg width="37" height="37" viewBox="0 0 37 37" fill="none" xmlns="http://www.w3.org/2000/svg">
<path d="M36.9849 18.2038C36.9849 13.3897 35.0725 8.7728 31.6684 5.36871C28.2643 1.96462 23.6474 0.052223 18.8333 0.0522238C14.0191 0.0522247 9.40221 1.96462 5.99812 5.36871C2.59403 8.7728 0.681637 13.3897 0.681637 18.2038C0.681638 23.018 2.59404 27.6349 5.99813 31.039C9.40222 34.4431 14.0192 36.3555 18.8333 36.3555C23.6474 36.3555 28.2643 34.4431 31.6684 31.039C35.0725 27.6349 36.9849 23.018 36.9849 18.2038ZM19.9677 26.1452C19.9677 26.4461 19.8482 26.7346 19.6355 26.9474C19.4227 27.1601 19.1341 27.2797 18.8333 27.2797C18.5324 27.2797 18.2438 27.1601 18.0311 26.9474C17.8183 26.7346 17.6988 26.4461 17.6988 26.1452L17.6988 13.0011L12.8296 17.8726C12.6166 18.0856 12.3277 18.2053 12.0264 18.2053C11.7251 18.2053 11.4362 18.0856 11.2232 17.8726C11.0102 17.6596 10.8905 17.3706 10.8905 17.0694C10.8905 16.7681 11.0102 16.4792 11.2232 16.2662L18.0301 9.4593C18.1354 9.35365 18.2606 9.26983 18.3985 9.21264C18.5363 9.15545 18.684 9.12601 18.8333 9.12601C18.9825 9.12601 19.1302 9.15545 19.2681 9.21264C19.4059 9.26983 19.5311 9.35365 19.6365 9.4593L26.4433 16.2662C26.6564 16.4792 26.776 16.7681 26.776 17.0694C26.776 17.3706 26.6564 17.6596 26.4433 17.8726C26.2303 18.0856 25.9414 18.2053 25.6401 18.2053C25.3389 18.2053 25.0499 18.0856 24.8369 17.8726L19.9677 13.0011L19.9677 26.1452Z" fill="white"/>
</svg>
