<svg width="39" height="39" viewBox="0 0 39 39" fill="none" xmlns="http://www.w3.org/2000/svg">
<path d="M19.515 0.0146484C8.93429 0.0146484 0.326172 8.62277 0.326172 19.2035C0.326172 29.7842 8.93429 38.3924 19.515 38.3924C30.0958 38.3924 38.7039 29.7842 38.7039 19.2035C38.7039 8.62277 30.0958 0.0146484 19.515 0.0146484ZM19.515 7.88208C20.0084 7.88208 20.4907 8.02838 20.9009 8.30249C21.3112 8.57659 21.6309 8.96619 21.8197 9.42201C22.0085 9.87783 22.0579 10.3794 21.9617 10.8633C21.8654 11.3472 21.6278 11.7917 21.2789 12.1405C20.9301 12.4894 20.4856 12.727 20.0017 12.8233C19.5178 12.9195 19.0162 12.8701 18.5604 12.6813C18.1046 12.4925 17.715 12.1728 17.4409 11.7625C17.1668 11.3523 17.0205 10.87 17.0205 10.3766C17.0205 9.71504 17.2833 9.08054 17.7511 8.61272C18.2189 8.1449 18.8534 7.88208 19.515 7.88208ZM24.1204 29.5655H15.6773C15.2701 29.5655 14.8797 29.4038 14.5918 29.1159C14.3039 28.828 14.1421 28.4375 14.1421 28.0304C14.1421 27.6232 14.3039 27.2328 14.5918 26.9449C14.8797 26.657 15.2701 26.4953 15.6773 26.4953H18.3637V18.0522H16.8286C16.4215 18.0522 16.031 17.8904 15.7431 17.6026C15.4552 17.3147 15.2935 16.9242 15.2935 16.5171C15.2935 16.1099 15.4552 15.7195 15.7431 15.4316C16.031 15.1437 16.4215 14.982 16.8286 14.982H19.8988C20.3059 14.982 20.6964 15.1437 20.9843 15.4316C21.2722 15.7195 21.4339 16.1099 21.4339 16.5171V26.4953H24.1204C24.5275 26.4953 24.918 26.657 25.2058 26.9449C25.4937 27.2328 25.6555 27.6232 25.6555 28.0304C25.6555 28.4375 25.4937 28.828 25.2058 29.1159C24.918 29.4038 24.5275 29.5655 24.1204 29.5655Z" fill="white"/>
</svg>
