<svg width="40" height="44" viewBox="0 0 40 44" fill="none" xmlns="http://www.w3.org/2000/svg">
<path d="M20.1949 0.604477C17.3914 0.502208 15.2204 2.43922 12.8695 3.65634C9.67208 5.55172 6.37953 7.30022 3.24577 9.29386C1.19604 10.9599 0.254274 13.6407 0.469527 16.2296C0.481461 20.8197 0.445746 25.4108 0.487559 30.0002C0.752988 32.7791 2.6799 35.1374 5.15944 36.2999C9.13992 38.5844 13.097 40.9114 17.0921 43.1693C19.6317 44.3274 22.6382 43.8403 24.8848 42.2735C28.8536 39.9682 32.847 37.7036 36.8002 35.3726C39.0742 33.7536 40.1537 30.9058 39.9204 28.1772C39.9084 23.587 39.9442 18.996 39.9023 14.4066C39.6366 11.6279 37.7101 9.26903 35.2303 8.10705C31.2497 5.82298 27.2919 3.49754 23.297 1.23943C22.3301 0.790286 21.256 0.607439 20.195 0.60439L20.1949 0.604477ZM17.6952 12.1633H22.6954V32.2443H17.6952V12.1633ZM23.9874 16.5341H28.9852V32.2443H23.9874V16.5341ZM11.4039 24.7295H16.4033V32.2443H11.4039V24.7294V24.7295Z" fill="white"/>
</svg>
