<svg width="136" height="32" viewBox="0 0 136 32" fill="none" xmlns="http://www.w3.org/2000/svg">
<g clip-path="url(#clip0_1183_3628)">
<path d="M39.4579 21.3279C36.4563 21.3279 34.0957 18.9919 34.0957 15.9999C34.0957 13.0079 36.4407 10.6719 39.4266 10.6719C41.0993 10.6719 42.6627 11.3919 43.6319 12.6079L42.178 13.9839C41.4745 13.1199 40.5209 12.6399 39.4422 12.6399C37.6288 12.6399 36.2687 14.0799 36.2687 16.0159C36.2687 17.9519 37.6757 19.3919 39.5048 19.3919C40.9274 19.3919 42.053 18.5119 42.3031 17.2319H39.3172V15.3599H44.5386V16.0159C44.523 19.0719 42.3813 21.3279 39.4579 21.3279ZM46.1957 21.1679H48.2906V17.2159H50.573L52.5428 21.1679H54.8877L52.6522 16.9119C53.856 16.4319 54.622 15.3439 54.622 14.0319C54.622 12.1439 53.1837 10.8319 51.1358 10.8319H46.1957V21.1679ZM50.9482 12.6719C51.8862 12.6719 52.5115 13.2319 52.5115 14.0639C52.5115 14.8959 51.8862 15.4559 50.9482 15.4559H48.2906V12.6719H50.9482ZM56.3573 21.1679H64.1738V19.3119H58.4365V16.8639H62.1728V15.0559H58.4365V12.6879H64.1113V10.8319H56.3416V21.1679H56.3573ZM65.956 21.1679H73.7726V19.3119H68.0352V16.8639H71.7715V15.0559H68.0352V12.6879H73.71V10.8319H65.9404V21.1679H65.956ZM75.5704 10.8319V21.1679H77.5401V14.2559L82.6991 21.1679H84.5438V10.8319H82.574V17.5199L77.5558 10.8319H75.5704Z" fill="white"/>
<path d="M85.7637 10.832H94.6589V12.72H91.2665V21.168H89.1717V12.72H85.7637V10.832ZM95.8627 21.168H97.9575V17.216H100.24L102.21 21.168H104.555L102.319 16.912C103.523 16.432 104.305 15.344 104.305 14.032C104.305 12.144 102.866 10.832 100.818 10.832H95.8783V21.168H95.8627ZM100.615 12.672C101.553 12.672 102.178 13.232 102.178 14.064C102.178 14.896 101.553 15.456 100.615 15.456H97.9575V12.672H100.615ZM105.305 21.168H107.478L108.51 18.448H112.684L113.716 21.168H115.982L111.887 10.832H109.463L105.305 21.168ZM109.182 16.736L110.636 12.928L112.059 16.736H109.182ZM117.061 21.168H120.938C123.955 21.168 126.285 18.928 126.285 16.032C126.285 13.088 123.955 10.832 120.938 10.832H117.061V21.168ZM120.938 12.736C122.736 12.736 124.127 14.176 124.127 16.032C124.127 17.856 122.72 19.264 120.938 19.264H119.156V12.736H120.938ZM127.973 21.168H135.79V19.312H130.068V16.864H133.804V15.056H130.068V12.688H135.743V10.832H127.973V21.168Z" fill="white"/>
<path d="M29.516 19.9683C27.6869 27.4563 20.3863 32.1283 13.0856 31.2163C12.6948 31.6803 11.8819 32.2083 10.8501 31.9203C9.95898 31.6803 8.91156 30.6243 9.28676 29.1523C9.91208 26.9603 12.7886 26.9603 13.4921 29.0083C17.6817 29.5683 25.0918 27.5683 27.3743 19.3923C28.5468 14.8803 27.2805 10.0323 24.06 6.73632C23.0439 5.69632 24.5916 4.08032 25.6234 5.13632C29.0001 8.59232 31.0481 14.1123 29.516 19.9683ZM8.6927 24.0803L5.19088 27.6643C5.19088 27.6643 -1.96909 21.5843 0.53221 12.0323C2.42382 4.48032 9.94335 -0.303675 16.947 0.784325C17.0877 0.624325 17.8381 -0.175675 18.9949 0.0323247C20.1987 0.256325 20.996 1.42432 20.7771 2.64032C20.5582 3.93632 19.4326 4.49632 18.6197 4.49632C17.0564 4.49632 16.5405 2.97632 16.5405 2.97632C10.256 2.20832 4.29979 6.33632 2.65831 12.5923C1.57963 16.7363 2.56452 21.1683 5.22215 24.4163L7.08249 22.5123C5.8631 4.59232 22.7312 8.08032 22.7312 8.08032C22.7312 8.08032 26.1862 25.3283 8.6927 24.0803ZM9.27112 20.2883L14.2425 15.2003C15.2742 14.1443 16.8219 15.7443 15.8058 16.8003L10.8344 21.8883C13.2888 21.8243 21.3555 21.5683 20.7458 10.1443C13.0387 9.71233 9.52125 13.1683 9.27112 20.2883Z" fill="white"/>
</g>
<defs>
<clipPath id="clip0_1183_3628">
<rect width="135.805" height="32" fill="white"/>
</clipPath>
</defs>
</svg>
